<svg width="24" height="15" viewBox="0 0 24 15" fill="none" xmlns="http://www.w3.org/2000/svg">
<path d="M0.665625 0.121791C0.398438 0.253041 0.215625 0.445229 0.0890625 0.726479C0.0046875 0.904604 0 1.15773 0 5.34367C0 9.5296 0.0046875 9.78273 0.0890625 9.96085C0.309375 10.4484 0.698438 10.6874 1.275 10.6874C1.73906 10.6874 1.93594 10.7671 2.01094 10.9687C2.03906 11.053 2.0625 11.3812 2.0625 11.6905C2.0625 12.6187 2.09531 12.614 3.32813 11.5312L4.28906 10.6921L10.7109 10.678L17.1328 10.664L17.325 10.5609C17.5688 10.4296 17.8313 10.139 17.9109 9.90929C17.9672 9.75929 17.9766 8.93429 17.9766 5.32023V0.913979L17.85 0.679604C17.7 0.388979 17.5219 0.220228 17.25 0.0983534C17.0391 0.00460339 16.9875 -8.39233e-05 8.97188 -8.39233e-05H0.909375L0.665625 0.121791ZM3.975 1.89367C4.72969 2.09523 5.1375 2.65773 5.1 3.44523C5.07656 3.92804 4.90781 4.27492 4.40156 4.90773C4.19531 5.16085 3.975 5.47492 3.91406 5.60617C3.77344 5.88742 3.69375 6.32335 3.73125 6.59523L3.75938 6.79679H3.36094C2.90625 6.79679 2.90625 6.80148 2.90625 6.32335C2.90625 5.7796 3.08438 5.41398 3.77813 4.52335C4.33125 3.81554 4.41094 3.10773 3.97969 2.74679C3.65156 2.46554 2.8875 2.46085 2.36719 2.72804L2.22656 2.80304L2.1 2.50773L1.97813 2.21242L2.16094 2.11398C2.60625 1.86085 3.46406 1.75773 3.975 1.89367ZM16.4297 2.69523C16.5891 2.84992 16.5797 3.00929 16.4016 3.15929L16.2563 3.28117H12.2156C8.19375 3.28117 8.17031 3.28117 8.04375 3.18273C7.88906 3.06085 7.87969 2.84054 8.025 2.68585L8.12344 2.57804H12.2203H16.3172L16.4297 2.69523ZM16.3781 5.11398C16.5469 5.24523 16.5469 5.48898 16.3781 5.62023C16.2563 5.71867 16.2188 5.71867 13.1203 5.71867C10.9266 5.71867 9.95625 5.7046 9.87656 5.6671C9.75938 5.61554 9.65625 5.44679 9.65625 5.31554C9.65625 5.27804 9.70781 5.19367 9.77344 5.13273L9.88594 5.01554H13.0688C16.2188 5.01554 16.2563 5.01554 16.3781 5.11398ZM16.3781 7.55148C16.5469 7.68273 16.5469 7.92648 16.3781 8.05773C16.2516 8.15617 16.2422 8.15617 11.2969 8.15617C6.38906 8.15617 6.3375 8.15617 6.22031 8.06242C6.15469 8.01085 6.08438 7.92648 6.07031 7.87492C6.0375 7.77648 6.11719 7.60304 6.22969 7.51398C6.28594 7.4671 7.44375 7.45773 11.2781 7.45304C16.2422 7.45304 16.2516 7.45304 16.3781 7.55148ZM3.55781 7.70617C3.76406 7.81398 3.8625 8.00617 3.8625 8.28742C3.8625 8.49835 3.84375 8.54992 3.71719 8.67648C3.40781 8.99054 2.91563 8.86867 2.76562 8.44679C2.70469 8.27335 2.70469 8.22648 2.76562 8.05304C2.8875 7.70617 3.24844 7.55148 3.55781 7.70617Z" fill="#151515"/>
<path d="M18.7031 6.85312C18.7031 9.80625 18.6891 9.96094 18.4266 10.425C18.2297 10.7625 17.8734 11.0859 17.4938 11.2641L17.1797 11.4141L13.2563 11.4281L9.32812 11.4375V11.7937C9.32812 12.3234 9.47344 12.6 9.86719 12.8109L10.0547 12.9141L15.3281 12.9375L20.6063 12.9609L21.3609 13.6078C21.8063 13.9828 22.1578 14.25 22.2141 14.25C22.3078 14.25 22.3125 14.2219 22.3125 13.8094C22.3125 13.0687 22.425 12.9375 23.0531 12.9375C23.325 12.9375 23.4047 12.9187 23.5828 12.8016C23.7 12.7266 23.8453 12.5953 23.9016 12.5016L24 12.3375L23.9906 8.54531L23.9766 4.74844L23.8406 4.575C23.7656 4.47187 23.6063 4.35 23.4656 4.28437L23.2266 4.17188H20.9672H18.7031V6.85312ZM22.5188 6.19219C22.6734 6.31406 22.6875 6.5625 22.5469 6.70312C22.4578 6.79219 22.3922 6.79687 21.0469 6.79687H19.6359L19.5234 6.67969C19.4578 6.61875 19.4062 6.53437 19.4062 6.49687C19.4062 6.37031 19.5094 6.19687 19.6125 6.15C19.6734 6.11719 20.2313 6.09844 21.0516 6.09844C22.3406 6.09375 22.3969 6.09844 22.5188 6.19219ZM22.5469 8.34375C22.6734 8.47031 22.6688 8.72344 22.5422 8.84062C22.4484 8.925 22.3453 8.92969 21.0656 8.94375L19.6828 8.95781L19.5469 8.81719C19.3781 8.64844 19.3688 8.51719 19.5234 8.36719L19.6359 8.25H21.0469C22.3922 8.25 22.4578 8.25469 22.5469 8.34375ZM22.4297 10.3781C22.6031 10.4531 22.6734 10.6031 22.6219 10.8094C22.5656 11.025 22.3781 11.0625 21.2812 11.0625C20.1844 11.0625 19.9969 11.025 19.9406 10.8094C19.8938 10.6078 19.9594 10.4531 20.1234 10.3828C20.3438 10.2844 22.2 10.2844 22.4297 10.3781Z" fill="#151515" fill-opacity="0.5"/>
</svg>
