<svg width="22" height="22" viewBox="0 0 22 22" fill="none" xmlns="http://www.w3.org/2000/svg">
<path d="M7.1753 0.0514088C5.9292 0.240471 4.75616 0.700237 3.70772 1.40063C1.71827 2.73266 0.412016 4.81664 0.059672 7.21C-0.0477499 7.95336 -0.00478111 9.35844 0.14561 10.076C0.300297 10.7979 0.515141 11.4209 0.841703 12.0955C0.992094 12.4049 1.1167 12.6799 1.1167 12.7014C1.1167 12.7229 0.867485 13.6467 0.55811 14.751C0.253031 15.8553 0.00810951 16.7663 0.0124064 16.7748C0.0210001 16.7791 0.931938 16.5342 2.04053 16.2291C3.14483 15.9198 4.06866 15.6705 4.09014 15.6705C4.10733 15.6705 4.38233 15.7952 4.6917 15.9455C5.37061 16.2764 5.98936 16.487 6.73272 16.6459C7.24405 16.7534 7.35577 16.762 8.35694 16.7663C9.2292 16.7663 9.5128 16.7491 9.86084 16.6846C13.4745 16.0143 16.1987 13.2041 16.7315 9.59907C16.8218 9.0018 16.8218 7.7643 16.7358 7.18422C16.4007 4.93696 15.1976 2.93461 13.3843 1.59828C12.3831 0.859221 11.2831 0.382269 9.97686 0.111565C9.41827 -0.00444984 7.78545 -0.038826 7.1753 0.0514088ZM9.17334 4.00453C9.74483 4.19789 10.1874 4.53305 10.5183 5.02719C10.819 5.48266 10.9351 5.86938 10.9351 6.43227C10.9351 7.33461 10.673 7.80727 9.67178 8.7268L9.02295 9.31977V9.8311V10.3424H8.39991H7.77686L7.78116 9.5561V8.77407L8.60616 8.02211C9.61163 7.10258 9.68897 6.98657 9.68897 6.43227C9.68897 6.12289 9.67178 6.03696 9.57295 5.84789C9.45264 5.62016 9.20772 5.37094 8.97139 5.24203C8.76944 5.13031 8.03038 5.13031 7.82842 5.24203C7.4503 5.44828 7.15811 5.85219 7.10225 6.23891L7.07647 6.43227H6.45342H5.83038L5.86045 6.16156C5.99366 4.97563 6.95186 4.02172 8.14209 3.90141C8.46436 3.86703 8.89405 3.91 9.17334 4.00453ZM9.02295 12.276V12.9205H8.39991H7.77686V12.276V11.6315H8.39991H9.02295V12.276Z" fill="black"/>
<path d="M18.0463 8.77835C18.0463 9.17367 17.9775 9.75375 17.8701 10.2952C17.174 13.7756 14.5185 16.6674 11.0939 17.6643C10.3506 17.8834 9.43104 18.0295 8.83377 18.0338C8.44276 18.0338 8.44705 18.0037 8.75643 18.5194C9.09158 19.078 9.46541 19.542 9.96815 20.0233C10.9478 20.96 12.0951 21.5659 13.4615 21.8666C13.8439 21.9526 14.0244 21.9655 14.8881 21.9655C15.7517 21.9655 15.9322 21.9526 16.3146 21.8666C16.9506 21.7291 17.4877 21.5444 18.042 21.2737L18.5361 21.033L20.2549 21.51C21.2002 21.7678 21.9779 21.9784 21.9865 21.9741C21.9908 21.9655 21.7803 21.1877 21.5224 20.2424L21.0455 18.5237L21.2861 18.0295C21.5611 17.458 21.7416 16.9467 21.8791 16.3151C21.965 15.9198 21.9779 15.7436 21.9779 14.8756C21.9779 13.7842 21.9264 13.4362 21.6514 12.6112C21.1271 11.0342 19.9799 9.61195 18.5318 8.74398C18.0205 8.4346 18.0463 8.4346 18.0463 8.77835Z" fill="black" fill-opacity="0.5"/>
</svg>
