<svg width="20" height="20" viewBox="0 0 20 20" fill="none" xmlns="http://www.w3.org/2000/svg">
<g clip-path="url(#clip0_642_10673)">
<path d="M7.09779 0.863281C5.02748 1.10156 3.16029 2.25 1.98841 4.00391C0.636852 6.02344 0.445446 8.70703 1.48841 10.9297C2.1681 12.3828 3.23842 13.4883 4.66029 14.2227L5.0431 14.418L5.75404 13.9727C6.14466 13.7266 6.98451 13.1992 7.61732 12.8008C8.33998 12.3477 8.86341 12.0469 9.01576 11.9961C9.49232 11.832 10.1251 11.9141 10.5665 12.1914C10.6759 12.2578 11.0626 12.6133 11.4337 12.9805L12.1056 13.6445L12.3283 13.4727C12.629 13.2422 13.1759 12.6953 13.4454 12.3633C14.1329 11.5039 14.6447 10.4219 14.8869 9.30859C15.004 8.75781 15.0353 7.49219 14.9454 6.89453C14.5314 4.19141 12.6603 1.97656 10.0978 1.16016C9.14857 0.859375 8.06263 0.75 7.09779 0.863281ZM8.27357 3.89453C8.45716 4.03125 8.51576 4.20312 8.51576 4.61328V4.99219L9.01576 5.00781C9.42591 5.01953 9.5392 5.03516 9.64857 5.10156C10.0665 5.34375 10.0665 5.90234 9.64857 6.14844C9.52357 6.22266 9.42982 6.23047 8.42982 6.25L7.34388 6.26953L7.22279 6.39453C6.98451 6.62891 7.03529 7.05469 7.31654 7.22656C7.42201 7.29297 7.51576 7.30469 7.89857 7.30469C8.14857 7.30469 8.44935 7.32422 8.56263 7.34766C9.09388 7.46094 9.55091 7.82031 9.7931 8.3125C9.93763 8.60547 9.94154 8.61719 9.94154 9.05859C9.94154 9.48828 9.93373 9.52734 9.81654 9.77734C9.59779 10.2344 9.17201 10.6016 8.68373 10.7461L8.51576 10.793V11.1797C8.51576 11.625 8.46498 11.7812 8.27357 11.9258C7.97279 12.1562 7.56654 12.0625 7.39466 11.7188C7.32045 11.5781 7.30482 11.4805 7.30482 11.1875V10.8281L6.78529 10.8125C6.28138 10.8008 6.25795 10.7969 6.12123 10.6914C6.0392 10.6328 5.94935 10.5312 5.9181 10.4688C5.78138 10.207 5.90248 9.84375 6.17201 9.69141C6.31263 9.61328 6.37123 9.60938 7.32045 9.60938C8.1056 9.60938 8.3517 9.59766 8.45716 9.55469C8.84779 9.39062 8.84779 8.73438 8.45716 8.57031C8.36341 8.53125 8.17201 8.51562 7.83607 8.51562C7.1056 8.51562 6.73841 8.37891 6.33998 7.96094C5.45326 7.01953 5.84388 5.53125 7.08998 5.10938L7.28529 5.04297L7.30482 4.62109C7.32826 4.17578 7.34779 4.10547 7.52748 3.9375C7.7267 3.75 8.05482 3.73047 8.27357 3.89453Z" fill="white"/>
<path d="M15.4258 10.0898C15.168 10.2265 15.0273 10.453 15.0078 10.7577C14.9805 11.164 15.0234 11.2382 15.6758 11.9062L16.2656 12.5038L14.5898 14.1796L12.9102 15.8593L11.5039 14.4569C10.7305 13.6835 10.043 13.0273 9.97656 12.9921C9.78906 12.9023 9.56641 12.8788 9.375 12.9296C9.27344 12.9569 7.48828 14.039 4.84766 15.6718C2.44922 17.1562 0.425781 18.414 0.351562 18.4608C0.277344 18.5116 0.171875 18.6171 0.117188 18.6991C0.03125 18.8241 0.0195312 18.8866 0.0195312 19.164C0.0195312 19.4569 0.03125 19.4999 0.136719 19.6562C0.3125 19.9062 0.535156 20.0077 0.878906 19.9921L1.15234 19.9804L5.30859 17.4062L9.46484 14.8358L10.9531 16.3241C11.9648 17.3319 12.4883 17.828 12.5859 17.871C12.7852 17.953 13.0703 17.9452 13.2812 17.8476C13.4141 17.789 13.9414 17.2851 15.4766 15.7538L17.4961 13.7343L18.0938 14.3241C18.7617 14.9765 18.8359 15.0194 19.2422 14.9921C19.5469 14.9726 19.7734 14.8319 19.9102 14.5741L20 14.4023V12.4921C20 10.8085 19.9922 10.5663 19.9375 10.4569C19.8477 10.2812 19.7305 10.1601 19.5625 10.0741C19.4258 10.0038 19.3086 9.99991 17.5078 9.99991H15.5977L15.4258 10.0898Z" fill="white" fill-opacity="0.5"/>
</g>
<defs>
<clipPath id="clip0_642_10673">
<rect width="20" height="20" fill="white"/>
</clipPath>
</defs>
</svg>
